<mxfile host="app.diagrams.net" agent="Mozilla/5.0 (Windows NT 10.0; Win64; x64) AppleWebKit/537.36 (KHTML, like Gecko) Chrome/129.0.0.0 Safari/537.36" version="24.7.16">
  <diagram name="Page-1" id="2YBvvXClWsGukQMizWep">
    <mxGraphModel dx="2100" dy="1114" grid="1" gridSize="10" guides="1" tooltips="1" connect="1" arrows="1" fold="1" page="1" pageScale="1" pageWidth="850" pageHeight="1100" math="0" shadow="0">
      <root>
        <mxCell id="0" />
        <mxCell id="1" parent="0" />
        <mxCell id="lgK2NmUeRGi96CaiP3lb-1" value="&lt;div&gt;&lt;br&gt;&lt;/div&gt;:LoginUI" style="shape=umlLifeline;perimeter=lifelinePerimeter;whiteSpace=wrap;html=1;container=0;dropTarget=0;collapsible=0;recursiveResize=0;outlineConnect=0;portConstraint=eastwest;newEdgeStyle={&quot;edgeStyle&quot;:&quot;elbowEdgeStyle&quot;,&quot;elbow&quot;:&quot;vertical&quot;,&quot;curved&quot;:0,&quot;rounded&quot;:0};size=50;" vertex="1" parent="1">
          <mxGeometry x="115" y="110" width="100" height="1100" as="geometry" />
        </mxCell>
        <mxCell id="lgK2NmUeRGi96CaiP3lb-2" value="&lt;div&gt;&lt;br&gt;&lt;/div&gt;:LoginControl" style="shape=umlLifeline;perimeter=lifelinePerimeter;whiteSpace=wrap;html=1;container=0;dropTarget=0;collapsible=0;recursiveResize=0;outlineConnect=0;portConstraint=eastwest;newEdgeStyle={&quot;edgeStyle&quot;:&quot;elbowEdgeStyle&quot;,&quot;elbow&quot;:&quot;vertical&quot;,&quot;curved&quot;:0,&quot;rounded&quot;:0};size=50;" vertex="1" parent="1">
          <mxGeometry x="230" y="110" width="100" height="1090" as="geometry" />
        </mxCell>
        <mxCell id="lgK2NmUeRGi96CaiP3lb-60" value="" style="html=1;points=[[0,0,0,0,5],[0,1,0,0,-5],[1,0,0,0,5],[1,1,0,0,-5]];perimeter=orthogonalPerimeter;outlineConnect=0;targetShapes=umlLifeline;portConstraint=eastwest;newEdgeStyle={&quot;curved&quot;:0,&quot;rounded&quot;:0};" vertex="1" parent="lgK2NmUeRGi96CaiP3lb-2">
          <mxGeometry x="45" y="170" width="10" height="70" as="geometry" />
        </mxCell>
        <mxCell id="lgK2NmUeRGi96CaiP3lb-3" value="&lt;b&gt;Sd Cancel Reservation&lt;/b&gt;" style="shape=umlFrame;whiteSpace=wrap;html=1;pointerEvents=0;width=150;height=30;fillColor=#e1d5e7;strokeColor=#9673a6;" vertex="1" parent="1">
          <mxGeometry x="10" y="40" width="1510" height="1370" as="geometry" />
        </mxCell>
        <mxCell id="lgK2NmUeRGi96CaiP3lb-4" value="&lt;span style=&quot;color: rgb(0, 0, 0); font-family: Helvetica; font-size: 12px; font-style: normal; font-variant-ligatures: normal; font-variant-caps: normal; font-weight: 400; letter-spacing: normal; orphans: 2; text-align: center; text-indent: 0px; text-transform: none; widows: 2; word-spacing: 0px; -webkit-text-stroke-width: 0px; white-space: nowrap; background-color: rgb(251, 251, 251); text-decoration-thickness: initial; text-decoration-style: initial; text-decoration-color: initial; display: inline !important; float: none;&quot;&gt;System admin&lt;/span&gt;" style="text;whiteSpace=wrap;html=1;" vertex="1" parent="1">
          <mxGeometry x="30" y="90" width="85" height="40" as="geometry" />
        </mxCell>
        <mxCell id="lgK2NmUeRGi96CaiP3lb-5" value="" style="shape=umlBoundary;whiteSpace=wrap;html=1;" vertex="1" parent="1">
          <mxGeometry x="180" y="110" width="20" height="20" as="geometry" />
        </mxCell>
        <mxCell id="lgK2NmUeRGi96CaiP3lb-6" value="" style="ellipse;shape=umlControl;whiteSpace=wrap;html=1;" vertex="1" parent="1">
          <mxGeometry x="300" y="110" width="20" height="20" as="geometry" />
        </mxCell>
        <mxCell id="lgK2NmUeRGi96CaiP3lb-7" value="" style="shape=umlLifeline;perimeter=lifelinePerimeter;whiteSpace=wrap;html=1;container=1;dropTarget=0;collapsible=0;recursiveResize=0;outlineConnect=0;portConstraint=eastwest;newEdgeStyle={&quot;curved&quot;:0,&quot;rounded&quot;:0};participant=umlActor;" vertex="1" parent="1">
          <mxGeometry x="50" y="110" width="20" height="1100" as="geometry" />
        </mxCell>
        <mxCell id="lgK2NmUeRGi96CaiP3lb-8" value="&lt;div&gt;&lt;br&gt;&lt;/div&gt;:UserDatabase" style="shape=umlLifeline;perimeter=lifelinePerimeter;whiteSpace=wrap;html=1;container=0;dropTarget=0;collapsible=0;recursiveResize=0;outlineConnect=0;portConstraint=eastwest;newEdgeStyle={&quot;edgeStyle&quot;:&quot;elbowEdgeStyle&quot;,&quot;elbow&quot;:&quot;vertical&quot;,&quot;curved&quot;:0,&quot;rounded&quot;:0};size=50;" vertex="1" parent="1">
          <mxGeometry x="340" y="110" width="100" height="1090" as="geometry" />
        </mxCell>
        <mxCell id="lgK2NmUeRGi96CaiP3lb-9" value="" style="ellipse;shape=umlEntity;whiteSpace=wrap;html=1;container=0;" vertex="1" parent="1">
          <mxGeometry x="405" y="110" width="20" height="20" as="geometry" />
        </mxCell>
        <mxCell id="lgK2NmUeRGi96CaiP3lb-10" value="&lt;b&gt;Ref&lt;/b&gt;" style="shape=umlFrame;whiteSpace=wrap;html=1;pointerEvents=0;fillColor=#d5e8d4;strokeColor=#82b366;" vertex="1" parent="1">
          <mxGeometry x="40" y="180" width="420" height="70" as="geometry" />
        </mxCell>
        <mxCell id="lgK2NmUeRGi96CaiP3lb-11" value="&lt;span style=&quot;color: rgb(0, 0, 0); font-family: Helvetica; font-size: 12px; font-style: normal; font-variant-ligatures: normal; font-variant-caps: normal; font-weight: 700; letter-spacing: normal; orphans: 2; text-align: center; text-indent: 0px; text-transform: none; widows: 2; word-spacing: 0px; -webkit-text-stroke-width: 0px; white-space: nowrap; background-color: rgb(251, 251, 251); text-decoration-thickness: initial; text-decoration-style: initial; text-decoration-color: initial; display: inline !important; float: none;&quot;&gt;Login&lt;/span&gt;" style="text;whiteSpace=wrap;html=1;" vertex="1" parent="1">
          <mxGeometry x="190" y="200" width="130" height="40" as="geometry" />
        </mxCell>
        <mxCell id="lgK2NmUeRGi96CaiP3lb-12" value="&lt;div&gt;&lt;span style=&quot;color: rgba(0, 0, 0, 0); font-family: monospace; font-size: 0px; text-align: start; text-wrap: nowrap;&quot;&gt;%3CmxGraphModel%3E%3Croot%3E%3CmxCell%20id%3D%220%22%2F%3E%3CmxCell%20id%3D%221%22%20parent%3D%220%22%2F%3E%3CmxCell%20id%3D%222%22%20value%3D%22%22%20style%3D%22shape%3DumlBoundary%3BwhiteSpace%3Dwrap%3Bhtml%3D1%3B%22%20vertex%3D%221%22%20parent%3D%221%22%3E%3CmxGeometry%20x%3D%22180%22%20y%3D%22110%22%20width%3D%2220%22%20height%3D%2220%22%20as%3D%22geometry%22%2F%3E%3C%2FmxCell%3E%3C%2Froot%3E%3C%2FmxGraphModel%3E&lt;/span&gt;&lt;br&gt;&lt;/div&gt;:BookingUI&lt;div&gt;&lt;/div&gt;" style="shape=umlLifeline;perimeter=lifelinePerimeter;whiteSpace=wrap;html=1;container=0;dropTarget=0;collapsible=0;recursiveResize=0;outlineConnect=0;portConstraint=eastwest;newEdgeStyle={&quot;edgeStyle&quot;:&quot;elbowEdgeStyle&quot;,&quot;elbow&quot;:&quot;vertical&quot;,&quot;curved&quot;:0,&quot;rounded&quot;:0};size=50;" vertex="1" parent="1">
          <mxGeometry x="470" y="110" width="110" height="1250" as="geometry" />
        </mxCell>
        <mxCell id="lgK2NmUeRGi96CaiP3lb-13" value="" style="html=1;points=[[0,0,0,0,5],[0,1,0,0,-5],[1,0,0,0,5],[1,1,0,0,-5]];perimeter=orthogonalPerimeter;outlineConnect=0;targetShapes=umlLifeline;portConstraint=eastwest;newEdgeStyle={&quot;curved&quot;:0,&quot;rounded&quot;:0};" vertex="1" parent="lgK2NmUeRGi96CaiP3lb-12">
          <mxGeometry x="50" y="180" width="10" height="690" as="geometry" />
        </mxCell>
        <mxCell id="lgK2NmUeRGi96CaiP3lb-14" value="" style="shape=umlBoundary;whiteSpace=wrap;html=1;" vertex="1" parent="1">
          <mxGeometry x="540" y="110" width="20" height="20" as="geometry" />
        </mxCell>
        <mxCell id="lgK2NmUeRGi96CaiP3lb-15" value="&lt;div&gt;&lt;span style=&quot;color: rgba(0, 0, 0, 0); font-family: monospace; font-size: 0px; text-align: start; text-wrap: nowrap;&quot;&gt;%3CmxGraphModel%3E%3Croot%3E%3CmxCell%20id%3D%220%22%2F%3E%3CmxCell%20id%3D%221%22%20parent%3D%220%22%2F%3E%3CmxCell%20id%3D%222%22%20value%3D%22%22%20style%3D%22shape%3DumlBoundary%3BwhiteSpace%3Dwrap%3Bhtml%3D1%3B%22%20vertex%3D%221%22%20parent%3D%221%22%3E%3CmxGeometry%20x%3D%22180%22%20y%3D%22110%22%20width%3D%2220%22%20height%3D%2220%22%20as%3D%22geometry%22%2F%3E%3C%2FmxCell%3E%3C%2Froot%3E%3C%2FmxGraphModel%3E&lt;/span&gt;&lt;br&gt;&lt;/div&gt;:BookingControl&lt;div&gt;&lt;/div&gt;" style="shape=umlLifeline;perimeter=lifelinePerimeter;whiteSpace=wrap;html=1;container=0;dropTarget=0;collapsible=0;recursiveResize=0;outlineConnect=0;portConstraint=eastwest;newEdgeStyle={&quot;edgeStyle&quot;:&quot;elbowEdgeStyle&quot;,&quot;elbow&quot;:&quot;vertical&quot;,&quot;curved&quot;:0,&quot;rounded&quot;:0};size=50;" vertex="1" parent="1">
          <mxGeometry x="690" y="110" width="110" height="1250" as="geometry" />
        </mxCell>
        <mxCell id="lgK2NmUeRGi96CaiP3lb-16" value="" style="html=1;points=[[0,0,0,0,5],[0,1,0,0,-5],[1,0,0,0,5],[1,1,0,0,-5]];perimeter=orthogonalPerimeter;outlineConnect=0;targetShapes=umlLifeline;portConstraint=eastwest;newEdgeStyle={&quot;curved&quot;:0,&quot;rounded&quot;:0};" vertex="1" parent="lgK2NmUeRGi96CaiP3lb-15">
          <mxGeometry x="50" y="180" width="10" height="690" as="geometry" />
        </mxCell>
        <mxCell id="lgK2NmUeRGi96CaiP3lb-17" value="&lt;div&gt;&lt;span style=&quot;color: rgba(0, 0, 0, 0); font-family: monospace; font-size: 0px; text-align: start; text-wrap: nowrap;&quot;&gt;%3CmxGraphModel%3E%3Croot%3E%3CmxCell%20id%3D%220%22%2F%3E%3CmxCell%20id%3D%221%22%20parent%3D%220%22%2F%3E%3CmxCell%20id%3D%222%22%20value%3D%22%22%20style%3D%22shape%3DumlBoundary%3BwhiteSpace%3Dwrap%3Bhtml%3D1%3B%22%20vertex%3D%221%22%20parent%3D%221%22%3E%3CmxGeometry%20x%3D%22180%22%20y%3D%22110%22%20width%3D%2220%22%20height%3D%2220%22%20as%3D%22geometry%22%2F%3E%3C%2FmxCell%3E%3C%2Froot%3E%3C%2FmxGraphModel%3E&lt;/span&gt;&lt;br&gt;&lt;/div&gt;:BookingDatabase&lt;div&gt;&lt;/div&gt;" style="shape=umlLifeline;perimeter=lifelinePerimeter;whiteSpace=wrap;html=1;container=0;dropTarget=0;collapsible=0;recursiveResize=0;outlineConnect=0;portConstraint=eastwest;newEdgeStyle={&quot;edgeStyle&quot;:&quot;elbowEdgeStyle&quot;,&quot;elbow&quot;:&quot;vertical&quot;,&quot;curved&quot;:0,&quot;rounded&quot;:0};size=50;" vertex="1" parent="1">
          <mxGeometry x="910" y="110" width="110" height="1240" as="geometry" />
        </mxCell>
        <mxCell id="lgK2NmUeRGi96CaiP3lb-18" value="" style="html=1;points=[[0,0,0,0,5],[0,1,0,0,-5],[1,0,0,0,5],[1,1,0,0,-5]];perimeter=orthogonalPerimeter;outlineConnect=0;targetShapes=umlLifeline;portConstraint=eastwest;newEdgeStyle={&quot;curved&quot;:0,&quot;rounded&quot;:0};" vertex="1" parent="lgK2NmUeRGi96CaiP3lb-17">
          <mxGeometry x="50" y="210" width="10" height="400" as="geometry" />
        </mxCell>
        <mxCell id="lgK2NmUeRGi96CaiP3lb-19" value="" style="ellipse;shape=umlEntity;whiteSpace=wrap;html=1;container=0;" vertex="1" parent="1">
          <mxGeometry x="970" y="110" width="20" height="20" as="geometry" />
        </mxCell>
        <mxCell id="lgK2NmUeRGi96CaiP3lb-20" value="" style="ellipse;shape=umlControl;whiteSpace=wrap;html=1;" vertex="1" parent="1">
          <mxGeometry x="760" y="110" width="20" height="20" as="geometry" />
        </mxCell>
        <mxCell id="lgK2NmUeRGi96CaiP3lb-55" value="Alt" style="shape=umlFrame;whiteSpace=wrap;html=1;pointerEvents=0;fillColor=#f8cecc;strokeColor=#b85450;" vertex="1" parent="1">
          <mxGeometry x="40" y="260" width="1450" height="1130" as="geometry" />
        </mxCell>
        <mxCell id="lgK2NmUeRGi96CaiP3lb-56" value="" style="endArrow=none;dashed=1;html=1;rounded=0;fontStyle=1;labelBorderColor=none;textShadow=0;verticalAlign=middle;fontSize=18;strokeWidth=2;entryX=0.999;entryY=0.092;entryDx=0;entryDy=0;entryPerimeter=0;" edge="1" parent="1" target="lgK2NmUeRGi96CaiP3lb-55">
          <mxGeometry width="50" height="50" relative="1" as="geometry">
            <mxPoint x="40" y="359.2" as="sourcePoint" />
            <mxPoint x="344" y="360" as="targetPoint" />
          </mxGeometry>
        </mxCell>
        <mxCell id="lgK2NmUeRGi96CaiP3lb-57" value="&lt;div style=&quot;text-align: center;&quot;&gt;&lt;span style=&quot;text-wrap: nowrap;&quot;&gt;[After Login fails]&lt;/span&gt;&lt;/div&gt;" style="text;whiteSpace=wrap;html=1;fontStyle=1" vertex="1" parent="1">
          <mxGeometry x="100" y="260" width="60" height="40" as="geometry" />
        </mxCell>
        <mxCell id="lgK2NmUeRGi96CaiP3lb-58" value="&lt;b&gt;Retry login()&lt;/b&gt;" style="html=1;verticalAlign=bottom;endArrow=open;dashed=1;endSize=8;curved=0;rounded=0;" edge="1" parent="1">
          <mxGeometry relative="1" as="geometry">
            <mxPoint x="280" y="320" as="sourcePoint" />
            <mxPoint x="170" y="320" as="targetPoint" />
          </mxGeometry>
        </mxCell>
        <mxCell id="lgK2NmUeRGi96CaiP3lb-59" value="&lt;div style=&quot;text-align: center;&quot;&gt;&lt;span style=&quot;text-wrap: nowrap;&quot;&gt;[After login fails]&lt;/span&gt;&lt;/div&gt;" style="text;whiteSpace=wrap;html=1;fontStyle=1" vertex="1" parent="1">
          <mxGeometry x="60" y="360" width="60" height="40" as="geometry" />
        </mxCell>
        <mxCell id="lgK2NmUeRGi96CaiP3lb-61" value="" style="html=1;points=[[0,0,0,0,5],[0,1,0,0,-5],[1,0,0,0,5],[1,1,0,0,-5]];perimeter=orthogonalPerimeter;outlineConnect=0;targetShapes=umlLifeline;portConstraint=eastwest;newEdgeStyle={&quot;curved&quot;:0,&quot;rounded&quot;:0};" vertex="1" parent="1">
          <mxGeometry x="160" y="290" width="10" height="60" as="geometry" />
        </mxCell>
        <mxCell id="lgK2NmUeRGi96CaiP3lb-63" value="&lt;div&gt;&lt;span style=&quot;color: rgba(0, 0, 0, 0); font-family: monospace; font-size: 0px; text-align: start; text-wrap: nowrap;&quot;&gt;%3CmxGraphModel%3E%3Croot%3E%3CmxCell%20id%3D%220%22%2F%3E%3CmxCell%20id%3D%221%22%20parent%3D%220%22%2F%3E%3CmxCell%20id%3D%222%22%20value%3D%22%22%20style%3D%22shape%3DumlBoundary%3BwhiteSpace%3Dwrap%3Bhtml%3D1%3B%22%20vertex%3D%221%22%20parent%3D%221%22%3E%3CmxGeometry%20x%3D%22180%22%20y%3D%22110%22%20width%3D%2220%22%20height%3D%2220%22%20as%3D%22geometry%22%2F%3E%3C%2FmxCell%3E%3C%2Froot%3E%3C%2FmxGraphModel%3E&lt;/span&gt;&lt;br&gt;&lt;/div&gt;:CancelletionSystem&lt;div&gt;&lt;/div&gt;" style="shape=umlLifeline;perimeter=lifelinePerimeter;whiteSpace=wrap;html=1;container=0;dropTarget=0;collapsible=0;recursiveResize=0;outlineConnect=0;portConstraint=eastwest;newEdgeStyle={&quot;edgeStyle&quot;:&quot;elbowEdgeStyle&quot;,&quot;elbow&quot;:&quot;vertical&quot;,&quot;curved&quot;:0,&quot;rounded&quot;:0};size=50;" vertex="1" parent="1">
          <mxGeometry x="1130" y="110" width="120" height="1240" as="geometry" />
        </mxCell>
        <mxCell id="lgK2NmUeRGi96CaiP3lb-64" value="" style="html=1;points=[[0,0,0,0,5],[0,1,0,0,-5],[1,0,0,0,5],[1,1,0,0,-5]];perimeter=orthogonalPerimeter;outlineConnect=0;targetShapes=umlLifeline;portConstraint=eastwest;newEdgeStyle={&quot;curved&quot;:0,&quot;rounded&quot;:0};" vertex="1" parent="lgK2NmUeRGi96CaiP3lb-63">
          <mxGeometry x="55" y="750" width="10" height="470" as="geometry" />
        </mxCell>
        <mxCell id="lgK2NmUeRGi96CaiP3lb-65" value="" style="ellipse;shape=umlControl;whiteSpace=wrap;html=1;" vertex="1" parent="1">
          <mxGeometry x="1190" y="110" width="20" height="20" as="geometry" />
        </mxCell>
        <mxCell id="lgK2NmUeRGi96CaiP3lb-67" value="&lt;div&gt;&lt;span style=&quot;color: rgba(0, 0, 0, 0); font-family: monospace; font-size: 0px; text-align: start; text-wrap: nowrap;&quot;&gt;%3CmxGraphModel%3E%3Croot%3E%3CmxCell%20id%3D%220%22%2F%3E%3CmxCell%20id%3D%221%22%20parent%3D%220%22%2F%3E%3CmxCell%20id%3D%222%22%20value%3D%22%22%20style%3D%22shape%3DumlBoundary%3BwhiteSpace%3Dwrap%3Bhtml%3D1%3B%22%20vertex%3D%221%22%20parent%3D%221%22%3E%3CmxGeometry%20x%3D%22180%22%20y%3D%22110%22%20width%3D%2220%22%20height%3D%2220%22%20as%3D%22geometry%22%2F%3E%3C%2FmxCell%3E%3C%2Froot%3E%3C%2FmxGraphModel%3E&lt;/span&gt;&lt;br&gt;&lt;/div&gt;:RefundSystem&lt;div&gt;&lt;/div&gt;" style="shape=umlLifeline;perimeter=lifelinePerimeter;whiteSpace=wrap;html=1;container=0;dropTarget=0;collapsible=0;recursiveResize=0;outlineConnect=0;portConstraint=eastwest;newEdgeStyle={&quot;edgeStyle&quot;:&quot;elbowEdgeStyle&quot;,&quot;elbow&quot;:&quot;vertical&quot;,&quot;curved&quot;:0,&quot;rounded&quot;:0};size=50;" vertex="1" parent="1">
          <mxGeometry x="1330" y="110" width="120" height="1180" as="geometry" />
        </mxCell>
        <mxCell id="lgK2NmUeRGi96CaiP3lb-68" value="" style="html=1;points=[[0,0,0,0,5],[0,1,0,0,-5],[1,0,0,0,5],[1,1,0,0,-5]];perimeter=orthogonalPerimeter;outlineConnect=0;targetShapes=umlLifeline;portConstraint=eastwest;newEdgeStyle={&quot;curved&quot;:0,&quot;rounded&quot;:0};" vertex="1" parent="lgK2NmUeRGi96CaiP3lb-67">
          <mxGeometry x="55" y="980" width="10" height="140" as="geometry" />
        </mxCell>
        <mxCell id="lgK2NmUeRGi96CaiP3lb-69" value="" style="ellipse;shape=umlControl;whiteSpace=wrap;html=1;" vertex="1" parent="1">
          <mxGeometry x="1390" y="110" width="20" height="20" as="geometry" />
        </mxCell>
        <mxCell id="lgK2NmUeRGi96CaiP3lb-70" value="Navigate to Bookings()" style="text;html=1;align=center;verticalAlign=middle;whiteSpace=wrap;rounded=0;fontStyle=1" vertex="1" parent="1">
          <mxGeometry x="140" y="400" width="210" height="30" as="geometry" />
        </mxCell>
        <mxCell id="lgK2NmUeRGi96CaiP3lb-73" value="Select Booking to cancel()" style="text;html=1;align=center;verticalAlign=middle;whiteSpace=wrap;rounded=0;fontStyle=1" vertex="1" parent="1">
          <mxGeometry x="140" y="560" width="210" height="30" as="geometry" />
        </mxCell>
        <mxCell id="lgK2NmUeRGi96CaiP3lb-74" value="" style="html=1;verticalAlign=bottom;endArrow=block;curved=0;rounded=0;" edge="1" parent="1">
          <mxGeometry width="80" relative="1" as="geometry">
            <mxPoint x="60" y="590" as="sourcePoint" />
            <mxPoint x="520" y="590" as="targetPoint" />
          </mxGeometry>
        </mxCell>
        <mxCell id="lgK2NmUeRGi96CaiP3lb-75" value="" style="html=1;verticalAlign=bottom;endArrow=block;curved=0;rounded=0;" edge="1" parent="1">
          <mxGeometry width="80" relative="1" as="geometry">
            <mxPoint x="60" y="430" as="sourcePoint" />
            <mxPoint x="520" y="430" as="targetPoint" />
          </mxGeometry>
        </mxCell>
        <mxCell id="lgK2NmUeRGi96CaiP3lb-76" value="" style="html=1;verticalAlign=bottom;endArrow=block;curved=0;rounded=0;" edge="1" parent="1" target="lgK2NmUeRGi96CaiP3lb-16">
          <mxGeometry width="80" relative="1" as="geometry">
            <mxPoint x="530" y="450" as="sourcePoint" />
            <mxPoint x="990" y="450" as="targetPoint" />
          </mxGeometry>
        </mxCell>
        <mxCell id="lgK2NmUeRGi96CaiP3lb-77" value="Navigate to Bookings()" style="text;html=1;align=center;verticalAlign=middle;whiteSpace=wrap;rounded=0;fontStyle=1" vertex="1" parent="1">
          <mxGeometry x="520" y="420" width="210" height="30" as="geometry" />
        </mxCell>
        <mxCell id="lgK2NmUeRGi96CaiP3lb-78" value="Navigate to Bookings()" style="text;html=1;align=center;verticalAlign=middle;whiteSpace=wrap;rounded=0;fontStyle=1" vertex="1" parent="1">
          <mxGeometry x="740" y="450" width="210" height="30" as="geometry" />
        </mxCell>
        <mxCell id="lgK2NmUeRGi96CaiP3lb-79" value="" style="html=1;verticalAlign=bottom;endArrow=block;curved=0;rounded=0;" edge="1" parent="1">
          <mxGeometry width="80" relative="1" as="geometry">
            <mxPoint x="751" y="480" as="sourcePoint" />
            <mxPoint x="961" y="480" as="targetPoint" />
          </mxGeometry>
        </mxCell>
        <mxCell id="lgK2NmUeRGi96CaiP3lb-80" value="&lt;b&gt;Show reservations()&lt;/b&gt;" style="html=1;verticalAlign=bottom;endArrow=open;dashed=1;endSize=8;curved=0;rounded=0;" edge="1" parent="1" target="lgK2NmUeRGi96CaiP3lb-16">
          <mxGeometry relative="1" as="geometry">
            <mxPoint x="961" y="520" as="sourcePoint" />
            <mxPoint x="851" y="520" as="targetPoint" />
          </mxGeometry>
        </mxCell>
        <mxCell id="lgK2NmUeRGi96CaiP3lb-81" value="&lt;b&gt;Show reservations()&lt;/b&gt;" style="html=1;verticalAlign=bottom;endArrow=open;dashed=1;endSize=8;curved=0;rounded=0;" edge="1" parent="1">
          <mxGeometry relative="1" as="geometry">
            <mxPoint x="740" y="544.58" as="sourcePoint" />
            <mxPoint x="529" y="544.58" as="targetPoint" />
          </mxGeometry>
        </mxCell>
        <mxCell id="lgK2NmUeRGi96CaiP3lb-82" value="Select the reservation()" style="text;html=1;align=center;verticalAlign=middle;whiteSpace=wrap;rounded=0;fontStyle=1" vertex="1" parent="1">
          <mxGeometry x="520" y="600" width="210" height="30" as="geometry" />
        </mxCell>
        <mxCell id="lgK2NmUeRGi96CaiP3lb-83" value="" style="html=1;verticalAlign=bottom;endArrow=block;curved=0;rounded=0;" edge="1" parent="1">
          <mxGeometry width="80" relative="1" as="geometry">
            <mxPoint x="530" y="630" as="sourcePoint" />
            <mxPoint x="740" y="630" as="targetPoint" />
          </mxGeometry>
        </mxCell>
        <mxCell id="lgK2NmUeRGi96CaiP3lb-84" value="" style="html=1;verticalAlign=bottom;endArrow=block;curved=0;rounded=0;" edge="1" parent="1">
          <mxGeometry width="80" relative="1" as="geometry">
            <mxPoint x="750" y="660" as="sourcePoint" />
            <mxPoint x="960" y="660" as="targetPoint" />
          </mxGeometry>
        </mxCell>
        <mxCell id="lgK2NmUeRGi96CaiP3lb-85" value="Fetch the reservation()" style="text;html=1;align=center;verticalAlign=middle;whiteSpace=wrap;rounded=0;fontStyle=1" vertex="1" parent="1">
          <mxGeometry x="740" y="630" width="210" height="30" as="geometry" />
        </mxCell>
        <mxCell id="lgK2NmUeRGi96CaiP3lb-86" value="&lt;b&gt;Return reservation Info()&lt;/b&gt;" style="html=1;verticalAlign=bottom;endArrow=open;dashed=1;endSize=8;curved=0;rounded=0;" edge="1" parent="1">
          <mxGeometry relative="1" as="geometry">
            <mxPoint x="961" y="690" as="sourcePoint" />
            <mxPoint x="750" y="690" as="targetPoint" />
          </mxGeometry>
        </mxCell>
        <mxCell id="lgK2NmUeRGi96CaiP3lb-87" value="ALT" style="shape=umlFrame;whiteSpace=wrap;html=1;pointerEvents=0;fillColor=#f8cecc;strokeColor=#b85450;" vertex="1" parent="1">
          <mxGeometry x="50" y="740" width="1420" height="630" as="geometry" />
        </mxCell>
        <mxCell id="lgK2NmUeRGi96CaiP3lb-88" value="" style="endArrow=none;dashed=1;html=1;rounded=0;fontStyle=1;labelBorderColor=none;textShadow=0;verticalAlign=middle;fontSize=18;strokeWidth=2;entryX=0.999;entryY=0.133;entryDx=0;entryDy=0;entryPerimeter=0;exitX=0;exitY=0.167;exitDx=0;exitDy=0;exitPerimeter=0;movable=1;resizable=1;rotatable=1;deletable=1;editable=1;locked=0;connectable=1;" edge="1" parent="1" source="lgK2NmUeRGi96CaiP3lb-87">
          <mxGeometry width="50" height="50" relative="1" as="geometry">
            <mxPoint x="60" y="840" as="sourcePoint" />
            <mxPoint x="1470" y="839.89" as="targetPoint" />
          </mxGeometry>
        </mxCell>
        <mxCell id="lgK2NmUeRGi96CaiP3lb-89" value="&lt;div style=&quot;text-align: center;&quot;&gt;&lt;span style=&quot;text-wrap: nowrap;&quot;&gt;[If booking in non-cancellable]&lt;/span&gt;&lt;/div&gt;" style="text;whiteSpace=wrap;html=1;fontStyle=1" vertex="1" parent="1">
          <mxGeometry x="110" y="740" width="60" height="40" as="geometry" />
        </mxCell>
        <mxCell id="lgK2NmUeRGi96CaiP3lb-90" value="" style="endArrow=open;endFill=1;endSize=12;html=1;rounded=0;" edge="1" parent="1">
          <mxGeometry width="160" relative="1" as="geometry">
            <mxPoint x="740" y="799.9999999999998" as="sourcePoint" />
            <mxPoint x="530" y="800" as="targetPoint" />
          </mxGeometry>
        </mxCell>
        <mxCell id="lgK2NmUeRGi96CaiP3lb-95" value="Nofify()" style="text;html=1;align=center;verticalAlign=middle;whiteSpace=wrap;rounded=0;fontStyle=1" vertex="1" parent="1">
          <mxGeometry x="520" y="770" width="210" height="30" as="geometry" />
        </mxCell>
        <mxCell id="lgK2NmUeRGi96CaiP3lb-96" value="&lt;div style=&quot;text-align: center;&quot;&gt;&lt;span style=&quot;text-wrap: nowrap;&quot;&gt;[If booking incancellable]&lt;/span&gt;&lt;/div&gt;" style="text;whiteSpace=wrap;html=1;fontStyle=1" vertex="1" parent="1">
          <mxGeometry x="60" y="840" width="60" height="40" as="geometry" />
        </mxCell>
        <mxCell id="lgK2NmUeRGi96CaiP3lb-97" value="" style="html=1;verticalAlign=bottom;endArrow=block;curved=0;rounded=0;" edge="1" parent="1">
          <mxGeometry width="80" relative="1" as="geometry">
            <mxPoint x="60" y="900" as="sourcePoint" />
            <mxPoint x="520" y="900" as="targetPoint" />
          </mxGeometry>
        </mxCell>
        <mxCell id="lgK2NmUeRGi96CaiP3lb-98" value="Cancel Request()" style="text;html=1;align=center;verticalAlign=middle;whiteSpace=wrap;rounded=0;fontStyle=1" vertex="1" parent="1">
          <mxGeometry x="145" y="870" width="210" height="30" as="geometry" />
        </mxCell>
        <mxCell id="lgK2NmUeRGi96CaiP3lb-99" value="Process cancellation()" style="text;html=1;align=center;verticalAlign=middle;whiteSpace=wrap;rounded=0;fontStyle=1" vertex="1" parent="1">
          <mxGeometry x="520" y="900" width="210" height="30" as="geometry" />
        </mxCell>
        <mxCell id="lgK2NmUeRGi96CaiP3lb-100" value="" style="html=1;verticalAlign=bottom;endArrow=block;curved=0;rounded=0;" edge="1" parent="1">
          <mxGeometry width="80" relative="1" as="geometry">
            <mxPoint x="530" y="930" as="sourcePoint" />
            <mxPoint x="740" y="930" as="targetPoint" />
          </mxGeometry>
        </mxCell>
        <mxCell id="lgK2NmUeRGi96CaiP3lb-101" value="Process cancellation()" style="text;html=1;align=center;verticalAlign=middle;whiteSpace=wrap;rounded=0;fontStyle=1" vertex="1" parent="1">
          <mxGeometry x="850" y="930" width="210" height="30" as="geometry" />
        </mxCell>
        <mxCell id="lgK2NmUeRGi96CaiP3lb-102" value="" style="html=1;verticalAlign=bottom;endArrow=block;curved=0;rounded=0;" edge="1" parent="1" target="lgK2NmUeRGi96CaiP3lb-64">
          <mxGeometry width="80" relative="1" as="geometry">
            <mxPoint x="750" y="960" as="sourcePoint" />
            <mxPoint x="960" y="960" as="targetPoint" />
          </mxGeometry>
        </mxCell>
        <mxCell id="lgK2NmUeRGi96CaiP3lb-103" value="" style="html=1;points=[[0,0,0,0,5],[0,1,0,0,-5],[1,0,0,0,5],[1,1,0,0,-5]];perimeter=orthogonalPerimeter;outlineConnect=0;targetShapes=umlLifeline;portConstraint=eastwest;newEdgeStyle={&quot;curved&quot;:0,&quot;rounded&quot;:0};" vertex="1" parent="1">
          <mxGeometry x="960" y="1010" width="10" height="80" as="geometry" />
        </mxCell>
        <mxCell id="lgK2NmUeRGi96CaiP3lb-104" value="&lt;b&gt;Nofify Refund()&lt;/b&gt;" style="html=1;verticalAlign=bottom;endArrow=open;dashed=1;endSize=8;curved=0;rounded=0;" edge="1" parent="1" target="lgK2NmUeRGi96CaiP3lb-109">
          <mxGeometry relative="1" as="geometry">
            <mxPoint x="1381" y="1198.82" as="sourcePoint" />
            <mxPoint x="1170" y="1198.82" as="targetPoint" />
          </mxGeometry>
        </mxCell>
        <mxCell id="lgK2NmUeRGi96CaiP3lb-105" value="OPT" style="shape=umlFrame;whiteSpace=wrap;html=1;pointerEvents=0;fillColor=#d5e8d4;strokeColor=#82b366;" vertex="1" parent="1">
          <mxGeometry x="480" y="1100" width="950" height="170" as="geometry" />
        </mxCell>
        <mxCell id="lgK2NmUeRGi96CaiP3lb-106" value="Process refund" style="text;html=1;align=center;verticalAlign=middle;whiteSpace=wrap;rounded=0;fontStyle=1" vertex="1" parent="1">
          <mxGeometry x="1190" y="1120" width="210" height="30" as="geometry" />
        </mxCell>
        <mxCell id="lgK2NmUeRGi96CaiP3lb-107" value="" style="html=1;verticalAlign=bottom;endArrow=block;curved=0;rounded=0;" edge="1" parent="1">
          <mxGeometry width="80" relative="1" as="geometry">
            <mxPoint x="1200" y="1150" as="sourcePoint" />
            <mxPoint x="1380" y="1150" as="targetPoint" />
          </mxGeometry>
        </mxCell>
        <mxCell id="lgK2NmUeRGi96CaiP3lb-108" value="&lt;b&gt;Update Booking status()&lt;/b&gt;" style="html=1;verticalAlign=bottom;endArrow=open;dashed=1;endSize=8;curved=0;rounded=0;" edge="1" parent="1">
          <mxGeometry relative="1" as="geometry">
            <mxPoint x="1191" y="1050" as="sourcePoint" />
            <mxPoint x="980" y="1050" as="targetPoint" />
          </mxGeometry>
        </mxCell>
        <mxCell id="lgK2NmUeRGi96CaiP3lb-109" value="" style="html=1;points=[[0,0,0,0,5],[0,1,0,0,-5],[1,0,0,0,5],[1,1,0,0,-5]];perimeter=orthogonalPerimeter;outlineConnect=0;targetShapes=umlLifeline;portConstraint=eastwest;newEdgeStyle={&quot;curved&quot;:0,&quot;rounded&quot;:0};" vertex="1" parent="1">
          <mxGeometry x="520" y="1130" width="10" height="210" as="geometry" />
        </mxCell>
        <mxCell id="lgK2NmUeRGi96CaiP3lb-110" value="&lt;b&gt;Notfiy success cancellation()&lt;/b&gt;" style="html=1;verticalAlign=bottom;endArrow=open;dashed=1;endSize=8;curved=0;rounded=0;" edge="1" parent="1">
          <mxGeometry relative="1" as="geometry">
            <mxPoint x="1190.5" y="1320" as="sourcePoint" />
            <mxPoint x="530" y="1320.18" as="targetPoint" />
          </mxGeometry>
        </mxCell>
      </root>
    </mxGraphModel>
  </diagram>
</mxfile>
